# xmcd CD database file
#
# Track frame offsets:
#	150
#	16010
#	30690
#	47077
#	63102
#	80492
#	96930
#	111327
#	128352
#	142782
#	158310
#	172712
#
# Disc length: 2521 seconds
#
# Revision: 1
# Processed by: cddbd v1.5.1PL0 Copyright (c) Steve Scherf et al.
# Submitted via: CDex 1.51
#
DISCID=7d09d70c
DTITLE=Relax - Nur bei dir
DYEAR=1995
DGENRE=National Folk
TTITLE0=Hoit mi ganz fest
TTITLE1=Amore, Amore, Amore
TTITLE2=Nur bei dir
TTITLE3=Lass mi nie wieder geh'n
TTITLE4=I bin so gern bei dir
TTITLE5=Du i woass
TTITLE6=Lass mi net alloa heit nacht
TTITLE7=Du i mog di
TTITLE8=Nie im Leb'n
TTITLE9=Oh mei, oh mei
TTITLE10=Ois wär' Weihnacht'n an jed'm Dog
TTITLE11=I steh hoit auf di
EXTD=YEAR: 1995
EXTT0=
EXTT1=
EXTT2=
EXTT3=
EXTT4=
EXTT5=
EXTT6=
EXTT7=
EXTT8=
EXTT9=
EXTT10=
EXTT11=
PLAYORDER=
